<svg id="visual" viewBox="0 0 900 300" width="900" height="300" xmlns="http://www.w3.org/2000/svg" xmlns:xlink="http://www.w3.org/1999/xlink" version="1.1"><rect x="0" y="0" width="900" height="300" fill="#001220"></rect><defs><linearGradient id="grad1_0" x1="66.7%" y1="100%" x2="100%" y2="0%"><stop offset="-10%" stop-color="#001220" stop-opacity="1"></stop><stop offset="110%" stop-color="#001220" stop-opacity="1"></stop></linearGradient></defs><defs><linearGradient id="grad2_0" x1="0%" y1="100%" x2="33.3%" y2="0%"><stop offset="-10%" stop-color="#001220" stop-opacity="1"></stop><stop offset="110%" stop-color="#001220" stop-opacity="1"></stop></linearGradient></defs><g transform="translate(900, 300)"><path d="M-255 0C-244 -41.8 -232.9 -83.6 -213 -123C-193.2 -162.4 -164.5 -199.2 -127.5 -220.8C-90.5 -242.4 -45.3 -248.7 0 -255L0 0Z" fill="#357e99"></path></g><g transform="translate(0, 0)"><path d="M255 0C251.9 50.8 248.8 101.6 220.8 127.5C192.8 153.4 140 154.4 99 171.5C58 188.6 29 221.8 0 255L0 0Z" fill="#357e99"></path></g></svg>