<svg id="visual" viewBox="0 0 900 300" width="900" height="300" xmlns="http://www.w3.org/2000/svg" xmlns:xlink="http://www.w3.org/1999/xlink" version="1.1"><rect x="0" y="0" width="900" height="300" fill="#001220"></rect><defs><linearGradient id="grad1_0" x1="66.7%" y1="0%" x2="100%" y2="100%"><stop offset="-10%" stop-color="#001220" stop-opacity="1"></stop><stop offset="110%" stop-color="#001220" stop-opacity="1"></stop></linearGradient></defs><defs><linearGradient id="grad2_0" x1="0%" y1="0%" x2="33.3%" y2="100%"><stop offset="-10%" stop-color="#001220" stop-opacity="1"></stop><stop offset="110%" stop-color="#001220" stop-opacity="1"></stop></linearGradient></defs><g transform="translate(900, 0)"><path d="M0 270C-35 262.4 -70.1 254.8 -99.1 239.3C-128.1 223.7 -151.2 200.2 -177.5 177.5C-203.8 154.7 -233.5 132.8 -249.4 103.3C-265.4 73.9 -267.7 36.9 -270 0L0 0Z" fill="#357e99"></path></g><g transform="translate(0, 300)"><path d="M0 -270C27.5 -248.7 55 -227.5 90.3 -218C125.7 -208.6 168.9 -211 190.9 -190.9C213 -170.8 213.9 -128.2 223.6 -92.6C233.2 -57 251.6 -28.5 270 0L0 0Z" fill="#357e99"></path></g></svg>